<svg width="888" height="711" viewBox="0 0 888 711" fill="none" xmlns="http://www.w3.org/2000/svg">
<g clip-path="url(#clip0_73_2)">
<path d="M444.935 604.807C384.768 604.807 326.463 583.945 279.953 545.775C233.443 507.605 201.607 454.49 189.869 395.479C178.132 336.468 187.218 275.212 215.581 222.15C243.943 169.087 289.827 127.501 345.414 104.476C401.002 81.4509 462.853 78.4124 520.429 95.8781C578.005 113.344 627.744 150.233 661.171 200.26C694.598 250.287 709.645 310.357 703.748 370.234C697.85 430.112 671.374 486.092 628.829 528.636C604.736 552.861 576.077 572.067 544.512 585.141C512.947 598.216 479.101 604.9 444.935 604.807V604.807ZM444.935 86.6783C302.639 86.6783 186.871 202.446 186.871 344.743C186.871 487.041 302.639 602.807 444.935 602.807C587.232 602.807 703 487.041 703 344.743C703 202.446 587.232 86.6783 444.935 86.6783V86.6783Z" fill="#3EDADD"/>
<path d="M541.5 643.809V381.809H346.5V643.809H541.5Z" fill="#140036"/>
<path d="M575 373.809H313V477.809H575V373.809Z" fill="#0B0148"/>
<path d="M575 489.809H313V593.809H575V489.809Z" fill="#0B0148"/>
<path d="M575 605.809H313V709.809H575V605.809Z" fill="#0B0148"/>
<path d="M575 417.902H313V433.902H575V417.902Z" fill="#3EDADD"/>
<path d="M575 533.902H313V549.902H575V533.902Z" fill="#3EDADD"/>
<path d="M575 649.902H313V665.902H575V649.902Z" fill="#3EDADD"/>
<path d="M524 394.809C527.314 394.809 530 392.122 530 388.809C530 385.495 527.314 382.809 524 382.809C520.686 382.809 518 385.495 518 388.809C518 392.122 520.686 394.809 524 394.809Z" fill="#3EDADD"/>
<path d="M545 394.809C548.314 394.809 551 392.122 551 388.809C551 385.495 548.314 382.809 545 382.809C541.686 382.809 539 385.495 539 388.809C539 392.122 541.686 394.809 545 394.809Z" fill="#3EDADD"/>
<path d="M566 394.809C569.314 394.809 572 392.122 572 388.809C572 385.495 569.314 382.809 566 382.809C562.686 382.809 560 385.495 560 388.809C560 392.122 562.686 394.809 566 394.809Z" fill="#3EDADD"/>
<path d="M524 508.809C527.314 508.809 530 506.122 530 502.809C530 499.495 527.314 496.809 524 496.809C520.686 496.809 518 499.495 518 502.809C518 506.122 520.686 508.809 524 508.809Z" fill="#3EDADD"/>
<path d="M545 508.809C548.314 508.809 551 506.122 551 502.809C551 499.495 548.314 496.809 545 496.809C541.686 496.809 539 499.495 539 502.809C539 506.122 541.686 508.809 545 508.809Z" fill="#3EDADD"/>
<path d="M566 508.809C569.314 508.809 572 506.122 572 502.809C572 499.495 569.314 496.809 566 496.809C562.686 496.809 560 499.495 560 502.809C560 506.122 562.686 508.809 566 508.809Z" fill="#3EDADD"/>
<path d="M524 622.809C527.314 622.809 530 620.122 530 616.809C530 613.495 527.314 610.809 524 610.809C520.686 610.809 518 613.495 518 616.809C518 620.122 520.686 622.809 524 622.809Z" fill="#3EDADD"/>
<path d="M545 622.809C548.314 622.809 551 620.122 551 616.809C551 613.495 548.314 610.809 545 610.809C541.686 610.809 539 613.495 539 616.809C539 620.122 541.686 622.809 545 622.809Z" fill="#3EDADD"/>
<path d="M566 622.809C569.314 622.809 572 620.122 572 616.809C572 613.495 569.314 610.809 566 610.809C562.686 610.809 560 613.495 560 616.809C560 620.122 562.686 622.809 566 622.809Z" fill="#3EDADD"/>
<path d="M888 708.809H0V710.809H888V708.809Z" fill="#0B0148"/>
<path d="M241.879 271.063V457.055C241.878 460.946 240.332 464.677 237.581 467.429C234.829 470.18 231.098 471.726 227.207 471.727H154.928C151.036 471.727 147.303 470.182 144.551 467.43C141.798 464.679 140.251 460.947 140.25 457.055V271.063C140.251 267.171 141.798 263.439 144.551 260.687C147.303 257.936 151.036 256.39 154.928 256.391H163.696C163.266 257.449 163.102 258.598 163.219 259.735C163.336 260.871 163.731 261.962 164.368 262.911C165.006 263.859 165.867 264.637 166.875 265.175C167.883 265.713 169.008 265.995 170.151 265.997H211.36C212.503 265.995 213.628 265.713 214.636 265.175C215.644 264.637 216.505 263.859 217.143 262.911C217.78 261.962 218.175 260.871 218.292 259.735C218.409 258.598 218.245 257.449 217.815 256.391H227.207C231.098 256.391 234.829 257.937 237.581 260.689C240.332 263.44 241.878 267.172 241.879 271.063Z" fill="#0B0148"/>
<path d="M237.064 291.91H145.064V419.91H237.064V291.91Z" fill="#121862"/>
<path d="M207.905 379.926H171.186V382.024H207.905V379.926Z" fill="#3EDADD"/>
<path d="M227.966 387.633H171.148V389.731H227.966V387.633Z" fill="#3EDADD"/>
<path d="M215.737 394.891H171.148V396.989H215.737V394.891Z" fill="#3EDADD"/>
<path d="M197.377 402.148H171.148V404.247H197.377V402.148Z" fill="#3EDADD"/>
<path d="M210.491 409.406H171.148V411.505H210.491V409.406Z" fill="#3EDADD"/>
<path d="M158.73 379.324H154.533V383.521H158.73V379.324Z" fill="#3EDADD"/>
<path d="M158.73 386.582H154.533V390.779H158.73V386.582Z" fill="#3EDADD"/>
<path d="M158.73 393.84H154.533V398.036H158.73V393.84Z" fill="#3EDADD"/>
<path d="M158.73 401.098H154.533V405.294H158.73V401.098Z" fill="#3EDADD"/>
<path d="M158.73 408.359H154.533V412.556H158.73V408.359Z" fill="#3EDADD"/>
<path d="M209.749 307.91H172.751V344.908H209.749V307.91Z" fill="#3EDADD"/>
<path d="M566.994 0.140625H321.11V157.616H566.994V0.140625Z" fill="#0B0148"/>
<path d="M543.508 44.1953H339.646V121.23H543.508V44.1953Z" fill="#121862"/>
<path d="M425.716 57.543H376.789V60.3388H425.716V57.543Z" fill="#3EDADD"/>
<path d="M452.446 67.8086H376.74V70.6044H452.446V67.8086Z" fill="#3EDADD"/>
<path d="M436.151 77.4805H376.74V80.2763H436.151V77.4805Z" fill="#3EDADD"/>
<path d="M411.688 87.1523H376.74V89.9482H411.688V87.1523Z" fill="#3EDADD"/>
<path d="M429.162 96.8203H376.74V99.6161H429.162V96.8203Z" fill="#3EDADD"/>
<path d="M360.193 56.7383H354.602V62.3299H360.193V56.7383Z" fill="#3EDADD"/>
<path d="M360.193 66.4102H354.602V72.0018H360.193V66.4102Z" fill="#3EDADD"/>
<path d="M360.193 76.082H354.602V81.6737H360.193V76.082Z" fill="#3EDADD"/>
<path d="M360.193 85.7539H354.602V91.3455H360.193V85.7539Z" fill="#3EDADD"/>
<path d="M360.193 95.4258H354.602V101.017H360.193V95.4258Z" fill="#3EDADD"/>
<path d="M533.504 53.8477H483.445V103.906H533.504V53.8477Z" fill="#3EDADD"/>
<path d="M566.89 0H321.006V10.446H566.89V0Z" fill="#3EDADD"/>
<path d="M328.769 7.43591C329.927 7.43591 330.866 6.49711 330.866 5.33905C330.866 4.18098 329.927 3.24219 328.769 3.24219C327.611 3.24219 326.672 4.18098 326.672 5.33905C326.672 6.49711 327.611 7.43591 328.769 7.43591Z" fill="white"/>
<path d="M336.117 7.43591C337.275 7.43591 338.214 6.49711 338.214 5.33905C338.214 4.18098 337.275 3.24219 336.117 3.24219C334.959 3.24219 334.021 4.18098 334.021 5.33905C334.021 6.49711 334.959 7.43591 336.117 7.43591Z" fill="white"/>
<path d="M343.466 7.43591C344.624 7.43591 345.563 6.49711 345.563 5.33905C345.563 4.18098 344.624 3.24219 343.466 3.24219C342.308 3.24219 341.369 4.18098 341.369 5.33905C341.369 6.49711 342.308 7.43591 343.466 7.43591Z" fill="white"/>
<path d="M731.647 294.809H671.647V325.809H731.647V294.809Z" fill="#0B0148"/>
<path d="M731.647 405.809H671.647V436.809H731.647V405.809Z" fill="#0B0148"/>
<path d="M701.647 415.809C729.262 415.809 751.647 393.423 751.647 365.809C751.647 338.194 729.262 315.809 701.647 315.809C674.033 315.809 651.647 338.194 651.647 365.809C651.647 393.423 674.033 415.809 701.647 415.809Z" fill="#0B0148"/>
<path d="M701.647 404.809C723.187 404.809 740.647 387.348 740.647 365.809C740.647 344.269 723.187 326.809 701.647 326.809C680.108 326.809 662.647 344.269 662.647 365.809C662.647 387.348 680.108 404.809 701.647 404.809Z" fill="#121862"/>
<path d="M719.124 355.121H688.877V356.849H719.124V355.121Z" fill="#3EDADD"/>
<path d="M735.647 361.469H688.846V363.197H735.647V361.469Z" fill="#3EDADD"/>
<path d="M725.574 367.445H688.846V369.174H725.574V367.445Z" fill="#3EDADD"/>
<path d="M710.451 373.426H688.846V375.154H710.451V373.426Z" fill="#3EDADD"/>
<path d="M721.253 379.406H688.846V381.135H721.253V379.406Z" fill="#3EDADD"/>
<path d="M678.617 354.625H675.16V358.082H678.617V354.625Z" fill="#3EDADD"/>
<path d="M678.617 360.605H675.16V364.062H678.617V360.605Z" fill="#3EDADD"/>
<path d="M678.617 366.582H675.16V370.039H678.617V366.582Z" fill="#3EDADD"/>
<path d="M678.617 372.562H675.16V376.019H678.617V372.562Z" fill="#3EDADD"/>
<path d="M678.617 378.539H675.16V381.996H678.617V378.539Z" fill="#3EDADD"/>
</g>
<defs>
<clipPath id="clip0_73_2">
<rect width="888" height="710.807" fill="white"/>
</clipPath>
</defs>
</svg>
